<svg viewBox="0 0 680 210" xmlns="http://www.w3.org/2000/svg">
  <rect x="68" y="48" width="96" height="128" rx="4" fill="#FCDCDC" stroke="#D4706E" stroke-width="1.5" opacity="0.55"/>
  <line x1="72" y1="50" x2="160" y2="50" stroke="#E8807E" stroke-width="2" opacity="0.5" stroke-linecap="round"/>
  <rect x="148" y="42" width="96" height="128" rx="8" fill="#FAE0C8" stroke="#CC7A42" stroke-width="1.4" opacity="0.6"/>
  <line x1="153" y1="45" x2="239" y2="45" stroke="#E89050" stroke-width="2" opacity="0.5" stroke-linecap="round"/>
  <rect x="228" y="36" width="96" height="128" rx="12" fill="#FCF0C8" stroke="#B8962E" stroke-width="1.3" opacity="0.65"/>
  <line x1="234" y1="40" x2="318" y2="40" stroke="#D4AC38" stroke-width="2" opacity="0.5" stroke-linecap="round"/>
  <rect x="308" y="32" width="96" height="128" rx="18" fill="#D4F0D0" stroke="#5E9E54" stroke-width="1.2" opacity="0.65"/>
  <line x1="316" y1="37" x2="396" y2="37" stroke="#70B860" stroke-width="2" opacity="0.45" stroke-linecap="round"/>
  <rect x="388" y="36" width="96" height="128" rx="26" fill="#C8E8F4" stroke="#4090B0" stroke-width="1.1" opacity="0.7"/>
  <line x1="400" y1="42" x2="476" y2="42" stroke="#50A8CC" stroke-width="2" opacity="0.45" stroke-linecap="round"/>
  <rect x="448" y="42" width="96" height="128" rx="38" fill="#D0D4F8" stroke="#6060B8" stroke-width="1.0" opacity="0.75"/>
  <line x1="468" y1="50" x2="534" y2="50" stroke="#7070D0" stroke-width="2" opacity="0.45" stroke-linecap="round"/>
  <ellipse cx="558" cy="106" rx="48" ry="64" fill="#E4D0F0" stroke="#8858A8" stroke-width="0.9" opacity="0.85"/>
  <path d="M520 60 Q558 46 596 60" fill="none" stroke="#9868B8" stroke-width="2" opacity="0.4" stroke-linecap="round"/>
  <line x1="116" y1="196" x2="558" y2="196" stroke="#c9bfb2" stroke-width="0.5" opacity="0.4"/>
  <circle cx="116" cy="196" r="2.5" fill="#D4706E" opacity="0.6"/>
  <circle cx="196" cy="196" r="2.5" fill="#CC7A42" opacity="0.65"/>
  <circle cx="276" cy="196" r="2.5" fill="#B8962E" opacity="0.7"/>
  <circle cx="356" cy="196" r="3" fill="#5E9E54" opacity="0.75"/>
  <circle cx="436" cy="196" r="3" fill="#4090B0" opacity="0.8"/>
  <circle cx="496" cy="196" r="3" fill="#6060B8" opacity="0.85"/>
  <circle cx="558" cy="196" r="3.5" fill="#8858A8" opacity="0.9"/>
</svg>
